<svg xmlns="http://www.w3.org/2000/svg" width="128" height="128" viewBox="0 0 128 128">
<defs>
<linearGradient id="base" x1=".15" y1="0" x2=".85" y2="1">
<stop offset="0" stop-color="#434b5a"/>
<stop offset="1" stop-color="#15181e"/>
</linearGradient>
<linearGradient id="rim" x1="0" y1="0" x2="0" y2="1">
<stop offset="0" stop-color="#fff" stop-opacity="0.5"/>
<stop offset=".3" stop-color="#fff" stop-opacity="0"/>
<stop offset=".72" stop-color="#000" stop-opacity="0"/>
<stop offset="1" stop-color="#000" stop-opacity="0.32"/>
</linearGradient>
<radialGradient id="sheen" cx=".2" cy=".1" r=".9">
<stop offset="0" stop-color="#fff" stop-opacity="0.12"/>
<stop offset="1" stop-color="#fff" stop-opacity="0"/>
</radialGradient>
<clipPath id="inside">
<path d="M50 8H78C112.44 8 120 15.56 120 50V78C120 112.44 112.44 120 78 120H50C15.56 120 8 112.44 8 78V50C8 15.56 15.56 8 50 8Z"/>
</clipPath>
<filter id="drop" x="-20%" y="-20%" width="140%" height="140%">
<feGaussianBlur stdDeviation="2.4"/>
</filter>
<filter id="lift" x="-20%" y="-20%" width="140%" height="140%">
<feGaussianBlur in="SourceAlpha" stdDeviation="1.3"/>
<feOffset dx=".7" dy="1.8"/>
<feComponentTransfer>
<feFuncA type="linear" slope="0.38"/>
</feComponentTransfer>
<feMerge>
<feMergeNode/>
<feMergeNode in="SourceGraphic"/>
</feMerge>
</filter>
<linearGradient id="p-ivory" x1="0" y1="0" x2="0" y2="1">
<stop offset="0" stop-color="#fffdf8"/>
<stop offset="1" stop-color="#e4dccb"/>
</linearGradient>
<linearGradient id="p-red" x1="0" y1="0" x2="0" y2="1">
<stop offset="0" stop-color="#f04c60"/>
<stop offset="1" stop-color="#c4223a"/>
</linearGradient>
<linearGradient id="p-blue" x1="0" y1="0" x2="0" y2="1">
<stop offset="0" stop-color="#2f82b8"/>
<stop offset="1" stop-color="#174e72"/>
</linearGradient>
</defs>
<path d="M50 8H78C112.44 8 120 15.56 120 50V78C120 112.44 112.44 120 78 120H50C15.56 120 8 112.44 8 78V50C8 15.56 15.56 8 50 8Z" fill="#000" opacity=".3" transform="translate(0 2.6)" filter="url(#drop)"/>
<path d="M50 8H78C112.44 8 120 15.56 120 50V78C120 112.44 112.44 120 78 120H50C15.56 120 8 112.44 8 78V50C8 15.56 15.56 8 50 8Z" fill="#000" opacity=".18" transform="translate(0 .8)"/>
<path d="M50 8H78C112.44 8 120 15.56 120 50V78C120 112.44 112.44 120 78 120H50C15.56 120 8 112.44 8 78V50C8 15.56 15.56 8 50 8Z" fill="url(#base)"/>
<path d="M50 8H78C112.44 8 120 15.56 120 50V78C120 112.44 112.44 120 78 120H50C15.56 120 8 112.44 8 78V50C8 15.56 15.56 8 50 8Z" fill="url(#sheen)"/>
<g filter="url(#lift)">
<path d="M25 22H103A9 9 0 0 1 112 31V97A9 9 0 0 1 103 106H25A9 9 0 0 1 16 97V31A9 9 0 0 1 25 22Z" fill="url(#p-ivory)"/>
<path d="M27 29H101A4 4 0 0 1 105 33V95A4 4 0 0 1 101 99H27A4 4 0 0 1 23 95V33A4 4 0 0 1 27 29Z" fill="url(#p-blue)"/>
<path d="M29.5 33.5H98.5A2 2 0 0 1 100.5 35.5V92.5A2 2 0 0 1 98.5 94.5H29.5A2 2 0 0 1 27.5 92.5V35.5A2 2 0 0 1 29.5 33.5Z" fill="none" stroke="#f3efe6" stroke-width="1" opacity=".45"/>
<path d="M64 66C64 75 63.1 82.5 64 89.4" fill="none" stroke="#f3efe6" stroke-width="1.8" stroke-linecap="round"/>
<path d="M64 84.6C59.8 76.8 53.2 75 47.2 68.4C50.8 78.6 57.4 83.4 64 87ZM64 78.6C67.6 73.2 73 72 77.8 66.6C75.4 75 70 78.6 64 81Z" fill="#f3efe6"/>
<path d="M64 66C53.8 66 50.2 57 51.4 46.2L57.4 52.2C58 43.8 61 39.6 64 36C67 39.6 70 43.8 70.6 52.2L76.6 46.2C77.8 57 74.2 66 64 66Z" fill="url(#p-red)"/>
</g>
<path d="M50 8H78C112.44 8 120 15.56 120 50V78C120 112.44 112.44 120 78 120H50C15.56 120 8 112.44 8 78V50C8 15.56 15.56 8 50 8Z" fill="none" stroke="url(#rim)" stroke-width="2.4" clip-path="url(#inside)"/>
</svg>
