<svg xmlns="http://www.w3.org/2000/svg" width="128" height="128" viewBox="0 0 128 128">
<defs>
<linearGradient id="base" x1=".15" y1="0" x2=".85" y2="1">
<stop offset="0" stop-color="#f2566a"/>
<stop offset="1" stop-color="#b81e34"/>
</linearGradient>
<linearGradient id="rim" x1="0" y1="0" x2="0" y2="1">
<stop offset="0" stop-color="#fff" stop-opacity="0.5"/>
<stop offset=".3" stop-color="#fff" stop-opacity="0"/>
<stop offset=".72" stop-color="#000" stop-opacity="0"/>
<stop offset="1" stop-color="#000" stop-opacity="0.32"/>
</linearGradient>
<radialGradient id="sheen" cx=".2" cy=".1" r=".9">
<stop offset="0" stop-color="#fff" stop-opacity="0.12"/>
<stop offset="1" stop-color="#fff" stop-opacity="0"/>
</radialGradient>
<clipPath id="inside">
<path d="M50 8H78C112.44 8 120 15.56 120 50V78C120 112.44 112.44 120 78 120H50C15.56 120 8 112.44 8 78V50C8 15.56 15.56 8 50 8Z"/>
</clipPath>
<filter id="drop" x="-20%" y="-20%" width="140%" height="140%">
<feGaussianBlur stdDeviation="2.4"/>
</filter>
<filter id="lift" x="-20%" y="-20%" width="140%" height="140%">
<feGaussianBlur in="SourceAlpha" stdDeviation="1.3"/>
<feOffset dx=".7" dy="1.8"/>
<feComponentTransfer>
<feFuncA type="linear" slope="0.38"/>
</feComponentTransfer>
<feMerge>
<feMergeNode/>
<feMergeNode in="SourceGraphic"/>
</feMerge>
</filter>
<linearGradient id="p-red" x1="0" y1="0" x2="0" y2="1">
<stop offset="0" stop-color="#f04c60"/>
<stop offset="1" stop-color="#c4223a"/>
</linearGradient>
<linearGradient id="p-slate" x1="0" y1="0" x2="0" y2="1">
<stop offset="0" stop-color="#3a414e"/>
<stop offset="1" stop-color="#1b1f27"/>
</linearGradient>
</defs>
<path d="M50 8H78C112.44 8 120 15.56 120 50V78C120 112.44 112.44 120 78 120H50C15.56 120 8 112.44 8 78V50C8 15.56 15.56 8 50 8Z" fill="#000" opacity=".3" transform="translate(0 2.6)" filter="url(#drop)"/>
<path d="M50 8H78C112.44 8 120 15.56 120 50V78C120 112.44 112.44 120 78 120H50C15.56 120 8 112.44 8 78V50C8 15.56 15.56 8 50 8Z" fill="#000" opacity=".18" transform="translate(0 .8)"/>
<path d="M50 8H78C112.44 8 120 15.56 120 50V78C120 112.44 112.44 120 78 120H50C15.56 120 8 112.44 8 78V50C8 15.56 15.56 8 50 8Z" fill="url(#base)"/>
<path d="M50 8H78C112.44 8 120 15.56 120 50V78C120 112.44 112.44 120 78 120H50C15.56 120 8 112.44 8 78V50C8 15.56 15.56 8 50 8Z" fill="url(#sheen)"/>
<g filter="url(#lift)">
<radialGradient id="perde" cx=".45" cy=".42" r=".7">
<stop offset="0" stop-color="#fffdf6"/>
<stop offset=".7" stop-color="#f1e7cf"/>
<stop offset="1" stop-color="#d8c8a6"/>
</radialGradient>
<path d="M25 22H103A9 9 0 0 1 112 31V97A9 9 0 0 1 103 106H25A9 9 0 0 1 16 97V31A9 9 0 0 1 25 22Z" fill="url(#p-slate)"/>
<path d="M26 29H102A3 3 0 0 1 105 32V92A3 3 0 0 1 102 95H26A3 3 0 0 1 23 92V32A3 3 0 0 1 26 29Z" fill="url(#perde)"/>
<path d="M23 99H105" stroke="#f3efe6" stroke-width="2" stroke-dasharray="4 3" opacity=".35"/>
<path d="M56 48L79 62L56 76Z" fill="url(#p-red)" stroke="#e62d42" stroke-width="3" stroke-linejoin="round"/>
</g>
<path d="M50 8H78C112.44 8 120 15.56 120 50V78C120 112.44 112.44 120 78 120H50C15.56 120 8 112.44 8 78V50C8 15.56 15.56 8 50 8Z" fill="none" stroke="url(#rim)" stroke-width="2.4" clip-path="url(#inside)"/>
</svg>
