<svg xmlns="http://www.w3.org/2000/svg" width="128" height="128" viewBox="0 0 128 128">
<defs>
<linearGradient id="base" x1=".15" y1="0" x2=".85" y2="1">
<stop offset="0" stop-color="#3288bd"/>
<stop offset="1" stop-color="#15486a"/>
</linearGradient>
<linearGradient id="rim" x1="0" y1="0" x2="0" y2="1">
<stop offset="0" stop-color="#fff" stop-opacity="0.5"/>
<stop offset=".3" stop-color="#fff" stop-opacity="0"/>
<stop offset=".72" stop-color="#000" stop-opacity="0"/>
<stop offset="1" stop-color="#000" stop-opacity="0.32"/>
</linearGradient>
<radialGradient id="sheen" cx=".2" cy=".1" r=".9">
<stop offset="0" stop-color="#fff" stop-opacity="0.12"/>
<stop offset="1" stop-color="#fff" stop-opacity="0"/>
</radialGradient>
<clipPath id="inside">
<path d="M50 8H78C112.44 8 120 15.56 120 50V78C120 112.44 112.44 120 78 120H50C15.56 120 8 112.44 8 78V50C8 15.56 15.56 8 50 8Z"/>
</clipPath>
<filter id="drop" x="-20%" y="-20%" width="140%" height="140%">
<feGaussianBlur stdDeviation="2.4"/>
</filter>
<filter id="lift" x="-20%" y="-20%" width="140%" height="140%">
<feGaussianBlur in="SourceAlpha" stdDeviation="1.3"/>
<feOffset dx=".7" dy="1.8"/>
<feComponentTransfer>
<feFuncA type="linear" slope="0.38"/>
</feComponentTransfer>
<feMerge>
<feMergeNode/>
<feMergeNode in="SourceGraphic"/>
</feMerge>
</filter>
<linearGradient id="p-ivory" x1="0" y1="0" x2="0" y2="1">
<stop offset="0" stop-color="#fffdf8"/>
<stop offset="1" stop-color="#e4dccb"/>
</linearGradient>
<linearGradient id="p-red" x1="0" y1="0" x2="0" y2="1">
<stop offset="0" stop-color="#f04c60"/>
<stop offset="1" stop-color="#c4223a"/>
</linearGradient>
<linearGradient id="p-gold" x1="0" y1="0" x2="0" y2="1">
<stop offset="0" stop-color="#e3c35a"/>
<stop offset="1" stop-color="#a8861c"/>
</linearGradient>
</defs>
<path d="M50 8H78C112.44 8 120 15.56 120 50V78C120 112.44 112.44 120 78 120H50C15.56 120 8 112.44 8 78V50C8 15.56 15.56 8 50 8Z" fill="#000" opacity=".3" transform="translate(0 2.6)" filter="url(#drop)"/>
<path d="M50 8H78C112.44 8 120 15.56 120 50V78C120 112.44 112.44 120 78 120H50C15.56 120 8 112.44 8 78V50C8 15.56 15.56 8 50 8Z" fill="#000" opacity=".18" transform="translate(0 .8)"/>
<path d="M50 8H78C112.44 8 120 15.56 120 50V78C120 112.44 112.44 120 78 120H50C15.56 120 8 112.44 8 78V50C8 15.56 15.56 8 50 8Z" fill="url(#base)"/>
<path d="M50 8H78C112.44 8 120 15.56 120 50V78C120 112.44 112.44 120 78 120H50C15.56 120 8 112.44 8 78V50C8 15.56 15.56 8 50 8Z" fill="url(#sheen)"/>
<g filter="url(#lift)">
<path d="M92.28 35.72A40 40 0 0 1 92.28 92.28L78.14 78.14A20 20 0 0 0 78.14 49.86Z" fill="url(#p-red)"/>
<path d="M92.28 92.28A40 40 0 0 1 35.72 92.28L49.86 78.14A20 20 0 0 0 78.14 78.14Z" fill="url(#p-ivory)"/>
<path d="M35.72 92.28A40 40 0 0 1 35.72 35.72L49.86 49.86A20 20 0 0 0 49.86 78.14Z" fill="url(#p-red)"/>
<path d="M35.72 35.72A40 40 0 0 1 92.28 35.72L78.14 49.86A20 20 0 0 0 49.86 49.86Z" fill="url(#p-ivory)"/>
<circle cx="64" cy="64" r="40" fill="none" stroke="#1b1f27" stroke-width="1" opacity=".25"/>
<path d="M64 51L64.99 61.6L69.06 58.94L66.4 63.01L77 64L66.4 64.99L69.06 69.06L64.99 66.4L64 77L63.01 66.4L58.94 69.06L61.6 64.99L51 64L61.6 63.01L58.94 58.94L63.01 61.6Z" fill="url(#p-gold)"/>
</g>
<path d="M50 8H78C112.44 8 120 15.56 120 50V78C120 112.44 112.44 120 78 120H50C15.56 120 8 112.44 8 78V50C8 15.56 15.56 8 50 8Z" fill="none" stroke="url(#rim)" stroke-width="2.4" clip-path="url(#inside)"/>
</svg>
