<svg xmlns="http://www.w3.org/2000/svg" width="128" height="128" viewBox="0 0 128 128">
<defs>
<linearGradient id="base" x1=".15" y1="0" x2=".85" y2="1">
<stop offset="0" stop-color="#f2566a"/>
<stop offset="1" stop-color="#b81e34"/>
</linearGradient>
<linearGradient id="rim" x1="0" y1="0" x2="0" y2="1">
<stop offset="0" stop-color="#fff" stop-opacity="0.5"/>
<stop offset=".3" stop-color="#fff" stop-opacity="0"/>
<stop offset=".72" stop-color="#000" stop-opacity="0"/>
<stop offset="1" stop-color="#000" stop-opacity="0.32"/>
</linearGradient>
<radialGradient id="sheen" cx=".2" cy=".1" r=".9">
<stop offset="0" stop-color="#fff" stop-opacity="0.12"/>
<stop offset="1" stop-color="#fff" stop-opacity="0"/>
</radialGradient>
<clipPath id="inside">
<path d="M50 8H78C112.44 8 120 15.56 120 50V78C120 112.44 112.44 120 78 120H50C15.56 120 8 112.44 8 78V50C8 15.56 15.56 8 50 8Z"/>
</clipPath>
<filter id="drop" x="-20%" y="-20%" width="140%" height="140%">
<feGaussianBlur stdDeviation="2.4"/>
</filter>
<filter id="lift" x="-20%" y="-20%" width="140%" height="140%">
<feGaussianBlur in="SourceAlpha" stdDeviation="1.3"/>
<feOffset dx=".7" dy="1.8"/>
<feComponentTransfer>
<feFuncA type="linear" slope="0.38"/>
</feComponentTransfer>
<feMerge>
<feMergeNode/>
<feMergeNode in="SourceGraphic"/>
</feMerge>
</filter>
<linearGradient id="p-ivory" x1="0" y1="0" x2="0" y2="1">
<stop offset="0" stop-color="#fffdf8"/>
<stop offset="1" stop-color="#e4dccb"/>
</linearGradient>
<linearGradient id="p-red" x1="0" y1="0" x2="0" y2="1">
<stop offset="0" stop-color="#f04c60"/>
<stop offset="1" stop-color="#c4223a"/>
</linearGradient>
<linearGradient id="p-slate" x1="0" y1="0" x2="0" y2="1">
<stop offset="0" stop-color="#3a414e"/>
<stop offset="1" stop-color="#1b1f27"/>
</linearGradient>
</defs>
<path d="M50 8H78C112.44 8 120 15.56 120 50V78C120 112.44 112.44 120 78 120H50C15.56 120 8 112.44 8 78V50C8 15.56 15.56 8 50 8Z" fill="#000" opacity=".3" transform="translate(0 2.6)" filter="url(#drop)"/>
<path d="M50 8H78C112.44 8 120 15.56 120 50V78C120 112.44 112.44 120 78 120H50C15.56 120 8 112.44 8 78V50C8 15.56 15.56 8 50 8Z" fill="#000" opacity=".18" transform="translate(0 .8)"/>
<path d="M50 8H78C112.44 8 120 15.56 120 50V78C120 112.44 112.44 120 78 120H50C15.56 120 8 112.44 8 78V50C8 15.56 15.56 8 50 8Z" fill="url(#base)"/>
<path d="M50 8H78C112.44 8 120 15.56 120 50V78C120 112.44 112.44 120 78 120H50C15.56 120 8 112.44 8 78V50C8 15.56 15.56 8 50 8Z" fill="url(#sheen)"/>
<g filter="url(#lift)">
<path d="M64 20C89 20 106 35 106 57C106 79 89 94 64 94C58 94 52 93 47 91L31 103L34 86C27 79 22 69 22 57C22 35 39 20 64 20Z" fill="url(#p-ivory)"/>
<circle cx="64" cy="57" r="19" fill="none" stroke="#1b1f27" stroke-width="1" opacity=".15"/>
<circle cx="64" cy="38" r="5" fill="url(#p-slate)"/>
<circle cx="80.45" cy="47.5" r="5" fill="url(#p-slate)"/>
<circle cx="80.45" cy="66.5" r="5" fill="url(#p-slate)"/>
<circle cx="64" cy="76" r="5" fill="url(#p-slate)"/>
<circle cx="47.55" cy="66.5" r="5" fill="url(#p-slate)"/>
<circle cx="47.55" cy="47.5" r="5" fill="url(#p-slate)"/>
<circle cx="64" cy="57" r="7.5" fill="url(#p-red)"/>
</g>
<path d="M50 8H78C112.44 8 120 15.56 120 50V78C120 112.44 112.44 120 78 120H50C15.56 120 8 112.44 8 78V50C8 15.56 15.56 8 50 8Z" fill="none" stroke="url(#rim)" stroke-width="2.4" clip-path="url(#inside)"/>
</svg>
